<svg width="19" height="18" viewBox="0 0 19 18" fill="none" xmlns="http://www.w3.org/2000/svg">
<path fill-rule="evenodd" clip-rule="evenodd" d="M14.4484 18H5.16684C2.75931 18 0.807617 16.0483 0.807617 13.6408V4.35922C0.807617 1.9516 2.75931 0 5.16684 0H14.4484C16.8559 0 18.8076 1.9516 18.8076 4.35922V13.6408C18.8076 16.0483 16.8559 18 14.4484 18Z" fill="white"/>
<path fill-rule="evenodd" clip-rule="evenodd" d="M15.885 8.71669H13.5729V7.32023C13.5729 6.81332 13.9839 6.40236 14.4908 6.40236H15.885V3.46588H14.2584C12.2581 3.46588 10.6365 5.08751 10.6365 7.0878V8.71669H9.20605V11.2007H10.6365V18H13.5729V11.2007H15.885V8.71669Z" fill="#314351"/>
</svg>
