<svg width="22" height="18" viewBox="0 0 22 18" fill="none" xmlns="http://www.w3.org/2000/svg">
<g clip-path="url(#clip0)">
<path fill-rule="evenodd" clip-rule="evenodd" d="M18.259 1.56171C18.259 1.56171 17.4733 0.249267 15.2146 0.161863C12.9577 0.074286 11.6977 1.57919 11.1196 2.45427C10.5433 3.32934 10.5311 5.27179 10.7215 5.63923C10.7215 5.63923 5.15193 5.70933 1.49481 1.01929C1.49481 1.01929 -0.464425 4.48429 2.895 6.86427C2.895 6.86427 1.80981 6.89923 0.847506 6.39177C0.847506 6.39177 0.830185 9.82181 4.38172 10.7668C4.38172 10.7668 3.31557 11.1519 2.43981 10.8717C2.43981 10.8717 3.06981 13.5841 6.46558 13.9343C6.46558 13.9343 4.4527 16.1216 0.0253906 15.7718C0.0253906 15.7718 6.25616 20.5737 13.5064 15.9768C19.9569 11.8868 19.4844 4.55421 19.4844 4.55421C19.4844 4.55421 21.1823 3.46919 21.6721 2.29677C21.6721 2.29677 20.4121 2.76926 19.204 2.94425C19.204 2.94425 21.094 1.42169 21.0421 0.494173C21.0421 0.494173 19.2923 1.56171 18.259 1.56171Z" fill="white"/>
</g>
<defs>
<clipPath id="clip0">
<rect width="21.8077" height="18" fill="white"/>
</clipPath>
</defs>
</svg>
