<svg width="24" height="24" viewBox="0 0 24 24" fill="none" xmlns="http://www.w3.org/2000/svg">
<path fill-rule="evenodd" clip-rule="evenodd" d="M11.999 1C5.9255 1 1 6.04946 1 12.2787C1 17.2617 4.15154 21.4886 8.52264 22.98C9.07299 23.0839 9.27355 22.7356 9.27355 22.4365C9.27355 22.1692 9.2641 21.4596 9.25869 20.5186C6.19899 21.1999 5.55342 19.0065 5.55342 19.0065C5.05304 17.7035 4.33184 17.3566 4.33184 17.3566C3.3331 16.6573 4.40747 16.6711 4.40747 16.6711C5.51156 16.7507 6.0923 17.8336 6.0923 17.8336C7.07348 19.5569 8.66715 19.0591 9.29381 18.7704C9.39375 18.042 9.67804 17.5449 9.99205 17.2631C7.54956 16.9785 4.98146 16.0106 4.98146 11.6888C4.98146 10.4578 5.41026 9.45039 6.11391 8.66247C6.00046 8.37721 5.62298 7.22996 6.22195 5.67766C6.22195 5.67766 7.14506 5.3744 9.24654 6.83392C10.1237 6.58328 11.0651 6.45865 12.0003 6.45381C12.9349 6.45865 13.8756 6.58328 14.7541 6.83392C16.8543 5.3744 17.776 5.67766 17.776 5.67766C18.3763 7.22996 17.9989 8.37721 17.8861 8.66247C18.5911 9.45039 19.0165 10.4578 19.0165 11.6888C19.0165 16.0217 16.4444 16.9751 13.9944 17.2541C14.3888 17.6024 14.7406 18.2906 14.7406 19.343C14.7406 20.8503 14.7271 22.0668 14.7271 22.4365C14.7271 22.7384 14.9257 23.0894 15.4834 22.9793C19.8512 21.4845 23 17.2603 23 12.2787C23 6.04946 18.0745 1 11.999 1Z" fill="#1D428A"/>
</svg>
