<svg id="Layer_1" data-name="Layer 1" xmlns="http://www.w3.org/2000/svg" viewBox="0 0 400 400"><defs><style>.cls-1{fill:#1d428a;}.cls-2{fill:#78be20;}.cls-3{fill:#00c1d5;}.cls-4{fill:#0091da;}</style></defs><polygon class="cls-1" points="273.75 310.19 273.75 310.25 273.7 310.25 273.75 310.19"/><path class="cls-1" d="M340.39,324.73h.13v-.17Z"/><g id="icon-only-for-dark"><path class="cls-2" d="M393.6,265.693l-95.726,120.06-7.819-16.369,85.934-107.71ZM106.059,369.311,20.125,261.674,2.441,265.693l95.726,120.06Z"/><path class="cls-1" d="M-3.258,240.7,30.94,90.975l14.176,11.253L14.425,236.61Zm402.56,0L365.1,90.975l-14.176,11.253L381.619,236.61Z"/><path class="cls-3" d="M266.967,380.418H129.077l-7.818,16.369h153.6ZM334.925,82.279,210.773,22.506V4.31l138.4,66.643ZM185.271,4.31,46.87,70.953l14.322,11.4L185.271,22.506Z"/><path class="cls-4" d="M266.236,349.216H129.808L44.751,242.529l30.4-133.066L198.059,50.42l122.909,59.189,30.4,133.066ZM137.554,333.14H258.417l75.412-94.484L306.938,120.789,198.059,68.249l-108.88,52.54L62.142,238.583Z"/></g></svg>