<svg id="_400px" data-name="400px" xmlns="http://www.w3.org/2000/svg" viewBox="0 0 400 400"><defs><style>.cls-1{fill:#0091da;}.cls-2{fill:#00c1d5;}.cls-3{fill:#78be20;}.cls-4{fill:#1d428a;}</style></defs><g id="outlined"><path class="cls-1" d="M399.809,208.747Q400,204.388,400,200A199.994,199.994,0,0,0,67.7,50.02L79.032,61.354A183.989,183.989,0,0,1,383.849,192.786Z"/><path class="cls-2" d="M64,200c0-74.991,61.009-136,136-136,67.252,0,123.249,49.07,134.092,113.284l17.821,17.82C349.319,113.549,282.174,48,200,48,116.187,48,48,116.187,48,200c0,69.177,46.455,127.7,109.805,146.036l-20.829-25.551A136.128,136.128,0,0,1,64,200Z"/><path class="cls-3" d="M226.264,382.137A186.274,186.274,0,0,1,200,384,184,184,0,0,1,61.355,79.032L50.021,67.7A200,200,0,0,0,200,400a201.738,201.738,0,0,0,40.112-4.015Z"/><path class="cls-4" d="M376.393,311.539a8,8,0,0,1,0,11.31l-72.36,72.35a15.452,15.452,0,0,1-21.75.11l-76.21-71.54v12a8,8,0,0,1-16,0v-39.91h38.29a8,8,0,0,1,0,16h-11.61l76.35,71.65,71.97-71.97A8,8,0,0,1,376.393,311.539Zm15.33-62.89a8,8,0,0,0-8,8v12.76l-78.9-74.16a15.473,15.473,0,0,0-21.75.1l-72.36,72.36a8,8,0,1,0,11.32,11.31L294,207.039l78.22,73.52h-11.48a8,8,0,0,0,0,16h38.98v-39.91A8,8,0,0,0,391.723,248.649Zm-96.905,85.967a39.8,39.8,0,1,1,39.8-39.8A39.844,39.844,0,0,1,294.818,334.616Zm0-16a23.8,23.8,0,1,0-23.8-23.8A23.825,23.825,0,0,0,294.818,318.616Z"/></g></svg>