<svg width="422" height="176" viewBox="0 0 422 176" fill="none" xmlns="http://www.w3.org/2000/svg">
<g clip-path="url(#clip0_404_984)">
<path d="M92.1247 121.298H62.0196L76.2011 139H77.9432H100.686L114.875 121.298H92.1247Z" fill="url(#paint0_linear_404_984)"/>
<path d="M125.076 80.1675L110.894 97.8691L92.1247 121.298H114.875L115.963 119.941L130.144 102.24L125.076 80.1675Z" fill="url(#paint1_linear_404_984)"/>
<path d="M124.532 77.7587L119.628 56.4007L99.1326 46.577L104.036 67.9349L104.201 68.649L110.894 97.869L125.076 80.1675L124.532 77.7587Z" fill="url(#paint2_linear_404_984)"/>
<path d="M62.0196 121.298L43.2424 97.869L38.1815 119.941L39.2693 121.298L53.4508 139H76.2011L62.0196 121.298Z" fill="url(#paint3_linear_404_984)"/>
<path d="M29.4471 78.4727L29.0609 80.1675L24 102.24L38.1815 119.941L43.2423 97.8691L49.9429 68.649L29.4471 78.4727Z" fill="url(#paint4_linear_404_984)"/>
<path d="M56.5804 45.8237L55.0038 46.577L34.508 56.4007L29.4471 78.4727L49.9429 68.649L77.0682 55.6475L56.5804 45.8237Z" fill="url(#paint5_linear_404_984)"/>
<path d="M99.1327 46.577L97.5639 45.8237L77.0682 36L56.5804 45.8237L77.0682 55.6474L104.201 68.649L99.1327 46.577Z" fill="url(#paint6_linear_404_984)"/>
<path d="M148.039 67.9428H150.916V82.0664L163.915 67.9428H167.762L157.002 79.6183L168.503 93.4829H164.735L154.984 81.5877L150.916 85.8248V93.4829H148.007L148.039 67.9428Z" fill="#2D3748"/>
<path d="M188.557 74.2592V93.4829H185.759V90.4306C185.157 91.4988 184.263 92.375 183.181 92.9572C182.024 93.5849 180.727 93.9138 179.409 93.9138C178.091 93.9138 176.794 93.5849 175.637 92.9572C174.549 92.3471 173.662 91.4369 173.083 90.3365C172.445 89.1281 172.128 87.7778 172.161 86.4133V74.2592H174.967V86.1229C174.902 87.5281 175.382 88.9042 176.307 89.9677C176.744 90.4491 177.282 90.8298 177.882 91.0832C178.483 91.3366 179.132 91.4567 179.783 91.435C180.818 91.4446 181.84 91.2163 182.771 90.768C183.641 90.3614 184.393 89.7402 184.955 88.9634C185.474 88.2434 185.75 87.3779 185.743 86.4917V74.2592H188.557Z" fill="#2D3748"/>
<path d="M209.423 75.0987C210.796 75.9714 211.901 77.204 212.616 78.661C213.379 80.2886 213.775 82.063 213.775 83.8593C213.775 85.6555 213.379 87.4299 212.616 89.0575C211.906 90.5241 210.801 91.7655 209.423 92.6433C208.066 93.499 206.489 93.9459 204.883 93.9301C203.447 93.952 202.032 93.583 200.792 92.863C199.566 92.1414 198.555 91.11 197.859 89.8735V93.4829H195.061V67.4955H197.859V77.8685C198.556 76.6314 199.568 75.5979 200.792 74.8712C202.033 74.1539 203.448 73.7877 204.883 73.8119C206.489 73.7962 208.066 74.243 209.423 75.0987ZM207.673 90.4699C208.7 89.815 209.52 88.8848 210.038 87.7864C210.591 86.5532 210.86 85.213 210.827 83.8632C210.864 82.5131 210.594 81.172 210.038 79.94C209.516 78.8483 208.696 77.9241 207.673 77.2722C206.68 76.6271 205.517 76.2911 204.331 76.3071C203.138 76.2925 201.967 76.6282 200.965 77.2722C199.971 77.9349 199.179 78.8581 198.679 79.94C198.123 81.172 197.853 82.5131 197.891 83.8632C197.857 85.213 198.127 86.5532 198.679 87.7864C199.182 88.8847 199.985 89.82 200.996 90.4856C201.999 91.1295 203.17 91.4652 204.362 91.4507C205.539 91.4558 206.691 91.1146 207.673 90.4699Z" fill="#2D3748"/>
<path d="M230.368 90.768C231.361 90.4256 232.264 89.8651 233.009 89.1281L234.728 90.925C233.763 91.9082 232.577 92.6479 231.267 93.0827C229.888 93.5989 228.428 93.8646 226.955 93.8674C225.261 93.8702 223.598 93.4204 222.139 92.5649C220.64 91.6914 219.397 90.4414 218.536 88.9398C217.618 87.3656 217.147 85.5731 217.172 83.7533C217.151 81.9738 217.594 80.2192 218.457 78.661C219.272 77.1708 220.472 75.9246 221.934 75.0516C223.36 74.1925 224.996 73.7418 226.663 73.7491C227.955 73.6858 229.242 73.9296 230.42 74.4604C231.597 74.9912 232.631 75.7937 233.435 76.8014C235.043 78.8101 235.847 81.5119 235.847 84.9068H220.081C220.209 86.6883 220.985 88.3622 222.265 89.6146C222.883 90.215 223.616 90.6856 224.42 90.9983C225.225 91.311 226.084 91.4595 226.947 91.435C228.119 91.4256 229.279 91.1994 230.368 90.768ZM222.32 77.9941C221.056 79.1576 220.26 80.7388 220.081 82.443H233.08C232.961 80.7896 232.29 79.2234 231.172 77.9941C230.605 77.4222 229.923 76.9762 229.17 76.6854C228.418 76.3947 227.612 76.2657 226.805 76.3071C225.148 76.2762 223.542 76.8801 222.32 77.9941Z" fill="#2D3748"/>
<path d="M259.228 87.6766H244.92L242.358 93.4829H239.205L250.525 67.9428H253.678L264.99 93.4829H261.837L259.228 87.6766ZM258.03 84.9303L252.094 71.5051L246.119 84.9303H258.03Z" fill="#2D3748"/>
<path d="M272.487 92.5492C270.962 91.6523 269.694 90.3796 268.806 88.8535C267.909 87.3422 267.438 85.6184 267.442 83.8632C267.435 82.1126 267.907 80.3931 268.806 78.8886C269.697 77.375 270.965 76.1156 272.487 75.2321C273.78 74.4528 275.239 73.989 276.746 73.8785C278.253 73.7681 279.765 74.0141 281.158 74.5966C282.33 75.0889 283.399 75.794 284.312 76.6759L282.365 78.5747C281.729 77.892 280.97 77.3355 280.126 76.9348C279.284 76.5441 278.366 76.3431 277.438 76.3463C276.186 76.3402 274.96 76.6945 273.906 77.3664C272.822 78.0541 271.935 79.008 271.328 80.1362C270.703 81.2924 270.375 82.5852 270.375 83.8985C270.375 85.2119 270.703 86.5046 271.328 87.6609C271.942 88.7703 272.822 89.7111 273.89 90.3993C274.941 91.0792 276.169 91.4392 277.422 91.435C278.365 91.4354 279.297 91.2263 280.149 90.823C281.027 90.4057 281.812 89.8189 282.459 89.0968L284.406 90.9878C283.49 91.903 282.406 92.6354 281.214 93.1455C279.812 93.7502 278.286 94.0116 276.762 93.9078C275.238 93.8041 273.761 93.3382 272.456 92.5492H272.487Z" fill="#2D3748"/>
<path d="M301.299 76.0167C302.688 77.614 303.405 79.6821 303.302 81.7917V93.4829H300.495V90.4698C299.803 91.5816 298.797 92.4658 297.602 93.0121C296.39 93.6135 295.055 93.9277 293.7 93.9301C291.859 94.0035 290.054 93.4066 288.624 92.251C287.97 91.7089 287.452 91.0239 287.109 90.2494C286.766 89.4749 286.607 88.632 286.645 87.7864C286.628 86.5979 286.986 85.4342 287.67 84.4595C288.368 83.4708 289.321 82.6875 290.429 82.1919C291.62 81.6577 292.914 81.3898 294.221 81.4072C296.366 81.4369 298.494 81.7996 300.527 82.4822V81.776C300.567 80.3745 300.149 78.998 299.337 77.8528C298.548 76.77 297.192 76.2364 295.3 76.2364C294.39 76.2399 293.486 76.3964 292.628 76.6994C291.61 77.0431 290.617 77.4573 289.656 77.9391L288.537 75.6715C290.678 74.5227 293.058 73.886 295.49 73.8119C298.033 73.8119 299.97 74.5468 301.299 76.0167ZM298.146 90.4385C298.722 90.131 299.228 89.7102 299.635 89.2017C300.041 88.6931 300.339 88.1074 300.511 87.4804V84.5223C298.614 83.997 296.654 83.733 294.686 83.7376C293.346 83.7001 292.03 84.0936 290.933 84.8597C290.454 85.1593 290.058 85.5745 289.782 86.0669C289.507 86.5593 289.36 87.1129 289.357 87.6765C289.339 88.2151 289.454 88.7498 289.692 89.2339C289.93 89.7181 290.283 90.137 290.72 90.4542C291.731 91.1615 292.947 91.5198 294.181 91.4742C295.566 91.4778 296.927 91.112 298.123 90.4149L298.146 90.4385Z" fill="#2D3748"/>
<path d="M326.564 67.4955V93.4829H323.766V89.8735C323.07 91.11 322.059 92.1414 320.833 92.863C319.593 93.583 318.178 93.952 316.742 93.9301C315.138 93.9462 313.564 93.4992 312.209 92.6433C310.828 91.7682 309.719 90.5262 309.009 89.0575C308.251 87.4285 307.858 85.6546 307.858 83.8593C307.858 82.0639 308.251 80.29 309.009 78.661C309.724 77.2019 310.832 75.9688 312.209 75.0987C313.564 74.2429 315.138 73.7959 316.742 73.8119C318.177 73.7877 319.592 74.1539 320.833 74.8712C322.057 75.5979 323.068 76.6314 323.766 77.8685V67.4955H326.564ZM320.629 90.4699C321.638 89.8086 322.441 88.8789 322.946 87.7864C323.498 86.5532 323.768 85.213 323.734 83.8632C323.772 82.5131 323.502 81.172 322.946 79.94C322.438 78.8512 321.636 77.9248 320.629 77.2643C319.622 76.6184 318.444 76.2852 317.247 76.3071C316.061 76.2892 314.897 76.6253 313.904 77.2722C312.914 77.9369 312.126 78.8597 311.626 79.94C311.07 81.172 310.801 82.5131 310.838 83.8632C310.804 85.213 311.074 86.5532 311.626 87.7864C312.126 88.882 312.923 89.8169 313.928 90.4856C314.915 91.1224 316.07 91.4529 317.247 91.435C318.445 91.4545 319.622 91.1185 320.629 90.4699Z" fill="#2D3748"/>
<path d="M344.664 90.768C345.654 90.4258 346.554 89.8652 347.297 89.1281L349.015 90.925C348.055 91.91 346.871 92.6502 345.562 93.0827C344.181 93.599 342.718 93.8647 341.242 93.8674C339.549 93.8702 337.885 93.4204 336.426 92.5649C334.929 91.6891 333.687 90.4396 332.823 88.9398C331.912 87.3848 331.433 85.6163 331.436 83.8161C331.417 82.0359 331.863 80.2814 332.729 78.7238C333.54 77.2339 334.738 75.9875 336.197 75.1144C337.624 74.256 339.26 73.8054 340.927 73.8119C342.218 73.7361 343.509 73.9677 344.692 74.4876C345.875 75.0076 346.917 75.8007 347.73 76.8014C349.307 78.8101 350.108 81.5119 350.134 84.9068H334.369C334.5 86.6874 335.276 88.3601 336.552 89.6146C337.172 90.2145 337.907 90.6847 338.712 90.9973C339.518 91.31 340.378 91.4588 341.242 91.435C342.415 91.4256 343.575 91.1994 344.664 90.768ZM336.615 77.9941C335.351 79.1576 334.556 80.7388 334.376 82.443H347.368C347.251 80.7904 346.583 79.2241 345.468 77.9941C344.898 77.4228 344.215 76.9773 343.461 76.6866C342.707 76.3959 341.9 76.2666 341.093 76.3071C339.438 76.2758 337.834 76.8799 336.615 77.9941Z" fill="#2D3748"/>
<path d="M379.27 74.7613C380.314 75.398 381.16 76.3107 381.714 77.3977C382.312 78.5934 382.612 79.9148 382.589 81.2503V93.4829H379.79V81.6191C379.848 80.2343 379.403 78.875 378.537 77.79C378.154 77.316 377.667 76.9358 377.114 76.6787C376.56 76.4216 375.955 76.2944 375.344 76.3071C374.654 76.2785 373.966 76.3874 373.319 76.6272C372.672 76.867 372.079 77.233 371.576 77.7037C371.097 78.1601 370.719 78.7116 370.468 79.3226C370.217 79.9337 370.097 80.5904 370.118 81.2503V93.4829H367.319V81.6191C367.377 80.2343 366.932 78.875 366.066 77.79C365.683 77.316 365.197 76.9358 364.643 76.6787C364.09 76.4216 363.484 76.2944 362.873 76.3071C362.182 76.2784 361.492 76.3871 360.844 76.6269C360.196 76.8667 359.602 77.2328 359.097 77.7037C358.618 78.1601 358.241 78.7116 357.989 79.3226C357.738 79.9337 357.619 80.5904 357.639 81.2503V93.4829H354.841V74.2592H357.639V77.0839C358.133 76.0995 358.905 75.281 359.862 74.7299C360.886 74.1323 362.057 73.8282 363.244 73.8511C364.656 73.8329 366.037 74.2645 367.185 75.083C368.334 75.8973 369.202 77.0458 369.668 78.3707C369.939 77.0457 370.691 75.8668 371.781 75.0595C372.915 74.2088 374.303 73.7637 375.723 73.7962C376.972 73.7852 378.2 74.1193 379.27 74.7613Z" fill="#2D3748"/>
<path d="M387.263 99.556L387.933 97.2021C388.645 97.5368 389.425 97.7008 390.212 97.6807C390.76 97.6947 391.303 97.5677 391.788 97.3119C392.293 96.9726 392.703 96.5108 392.978 95.9702L394.106 93.6163L385.734 74.2592H388.832L395.588 90.2502L401.981 74.2592H405L396.187 95.6328C395.724 96.9695 394.907 98.157 393.822 99.0695C392.811 99.7954 391.592 100.178 390.346 100.16C389.286 100.187 388.233 99.9809 387.263 99.556Z" fill="#2D3748"/>
<path d="M148.551 108.713H151.783V110.415H148.551V121.824H146.643V110.415H144.61V108.713H146.675V106.916C146.657 106.475 146.727 106.035 146.882 105.622C147.036 105.208 147.271 104.83 147.574 104.507C147.87 104.197 148.23 103.953 148.628 103.791C149.025 103.629 149.453 103.552 149.883 103.566C150.771 103.556 151.634 103.853 152.327 104.405L151.349 105.833C151.183 105.667 150.985 105.536 150.766 105.449C150.517 105.345 150.248 105.295 149.978 105.3C149.786 105.299 149.596 105.341 149.422 105.421C149.248 105.501 149.093 105.617 148.969 105.763C148.686 106.092 148.537 106.514 148.551 106.947V108.713Z" fill="#2D3748"/>
<path d="M158.105 109.184C159.068 108.648 160.156 108.377 161.258 108.399V110.102C160.347 110.087 159.444 110.277 158.618 110.659C157.881 111.005 157.256 111.548 156.812 112.228C156.375 112.903 156.147 113.692 156.158 114.496V121.824H154.25V108.713H156.158V111.279C156.563 110.389 157.246 109.654 158.105 109.184Z" fill="#2D3748"/>
<path d="M166.603 121.204C165.566 120.592 164.708 119.722 164.112 118.679C163.516 117.636 163.204 116.456 163.205 115.257C163.194 114.055 163.51 112.873 164.12 111.836C164.715 110.801 165.571 109.939 166.603 109.333C167.633 108.722 168.81 108.402 170.008 108.407C171.2 108.401 172.37 108.721 173.39 109.333C174.418 109.941 175.271 110.803 175.866 111.836C176.475 112.873 176.791 114.055 176.78 115.257C176.789 116.463 176.473 117.65 175.866 118.693C175.275 119.732 174.422 120.597 173.39 121.204C172.371 121.819 171.2 122.14 170.008 122.13C168.809 122.139 167.631 121.818 166.603 121.204ZM172.397 119.737C173.132 119.265 173.735 118.614 174.147 117.846C174.58 117.051 174.802 116.16 174.793 115.257C174.803 114.358 174.581 113.472 174.147 112.683C173.734 111.92 173.132 111.274 172.397 110.808C171.695 110.349 170.872 110.106 170.032 110.109C169.177 110.103 168.339 110.346 167.62 110.808C166.881 111.271 166.275 111.917 165.862 112.683C165.428 113.472 165.206 114.358 165.216 115.257C165.207 116.16 165.429 117.051 165.862 117.846C166.275 118.616 166.88 119.268 167.62 119.737C168.341 120.193 169.178 120.433 170.032 120.428C170.871 120.43 171.692 120.19 172.397 119.737Z" fill="#2D3748"/>
<path d="M196.732 109.058C197.447 109.489 198.026 110.112 198.403 110.855C198.81 111.671 199.016 112.572 199.002 113.483V121.824H197.087V113.735C197.128 112.79 196.826 111.862 196.235 111.122C195.975 110.798 195.643 110.538 195.266 110.363C194.889 110.187 194.476 110.101 194.059 110.109C193.588 110.09 193.117 110.163 192.675 110.326C192.232 110.489 191.827 110.738 191.482 111.059C191.155 111.371 190.898 111.749 190.727 112.166C190.556 112.584 190.474 113.033 190.488 113.483V121.824H188.581V113.735C188.623 112.79 188.32 111.862 187.729 111.122C187.467 110.798 187.134 110.539 186.756 110.363C186.377 110.188 185.963 110.101 185.546 110.109C185.076 110.09 184.606 110.164 184.165 110.327C183.724 110.49 183.32 110.739 182.976 111.059C182.649 111.371 182.392 111.749 182.221 112.166C182.05 112.584 181.969 113.033 181.983 113.483V121.824H180.083V108.713H181.998V110.643C182.32 109.95 182.841 109.369 183.496 108.972C184.195 108.569 184.991 108.363 185.798 108.375C186.772 108.356 187.726 108.651 188.518 109.215C189.298 109.785 189.88 110.583 190.181 111.498C190.371 110.596 190.884 109.793 191.624 109.239C192.397 108.659 193.344 108.355 194.312 108.375C195.167 108.373 196.005 108.609 196.732 109.058Z" fill="#2D3748"/>
<path d="M226.159 104.405L218.441 121.824H216.274L208.556 104.405H210.724L217.369 119.392L223.991 104.405H226.159Z" fill="#2D3748"/>
<path d="M229.572 104.405H231.567L238.062 116.551L244.558 104.405H246.544V121.824H244.558V108.666L238.062 120.812L231.567 108.666V121.824H229.572V104.405Z" fill="#2D3748"/>
<path d="M249.729 108.713H251.771L255.058 119.29L258.645 108.713H260.308L263.895 119.29L267.182 108.713H269.224L264.793 121.824H262.98L259.488 111.326L255.949 121.801H254.136L249.729 108.713Z" fill="#2D3748"/>
<path d="M280.551 109.89C281.49 110.978 281.977 112.38 281.915 113.813V121.801H280V119.753C279.523 120.507 278.839 121.108 278.029 121.487C277.2 121.894 276.289 122.106 275.364 122.107C274.108 122.16 272.875 121.755 271.896 120.969C271.454 120.596 271.104 120.128 270.87 119.601C270.636 119.074 270.526 118.5 270.548 117.925C270.539 117.112 270.785 116.317 271.25 115.649C271.724 114.967 272.375 114.424 273.134 114.08C273.946 113.714 274.828 113.53 275.719 113.538C277.175 113.56 278.619 113.806 280 114.268V113.837C280.039 112.875 279.762 111.928 279.211 111.137C278.877 110.745 278.452 110.439 277.973 110.247C277.494 110.054 276.975 109.98 276.46 110.031C275.837 110.037 275.219 110.145 274.631 110.353C273.937 110.598 273.261 110.889 272.605 111.224L271.817 109.654C273.273 108.869 274.892 108.434 276.547 108.383C277.284 108.334 278.023 108.443 278.714 108.702C279.405 108.962 280.032 109.367 280.551 109.89ZM278.384 119.737C278.777 119.528 279.122 119.241 279.4 118.894C279.678 118.548 279.882 118.148 280 117.72V115.712C278.716 115.36 277.39 115.181 276.058 115.178C275.142 115.161 274.244 115.436 273.496 115.963C273.173 116.172 272.907 116.458 272.722 116.795C272.538 117.132 272.441 117.509 272.44 117.893C272.427 118.26 272.505 118.625 272.667 118.954C272.83 119.284 273.071 119.569 273.37 119.784C274.059 120.272 274.891 120.517 275.735 120.482C276.668 120.469 277.581 120.212 278.384 119.737Z" fill="#2D3748"/>
<path d="M289.885 109.184C290.847 108.648 291.936 108.377 293.038 108.399V110.102C292.127 110.087 291.224 110.277 290.397 110.659C289.661 111.005 289.036 111.548 288.592 112.228C288.157 112.904 287.932 113.693 287.946 114.496V121.824H286.03V108.713H287.946V111.279C288.345 110.388 289.026 109.652 289.885 109.184Z" fill="#2D3748"/>
<path d="M304.043 119.957C304.719 119.725 305.333 119.344 305.84 118.843L307.007 120.09C306.348 120.761 305.537 121.264 304.642 121.557C303.702 121.915 302.707 122.103 301.701 122.115C300.546 122.118 299.41 121.812 298.414 121.228C297.391 120.633 296.543 119.781 295.955 118.756C295.353 117.686 295.033 116.482 295.024 115.255C295.016 114.028 295.32 112.82 295.907 111.742C296.458 110.725 297.276 109.876 298.272 109.286C299.251 108.694 300.375 108.384 301.52 108.391C302.396 108.349 303.269 108.513 304.069 108.87C304.87 109.227 305.573 109.767 306.124 110.447C307.283 112.038 307.861 113.976 307.763 115.939H296.995C297.077 117.162 297.607 118.313 298.485 119.172C298.908 119.582 299.409 119.903 299.959 120.116C300.509 120.329 301.096 120.429 301.686 120.412C302.493 120.408 303.293 120.254 304.043 119.957ZM298.525 111.247C297.664 112.04 297.121 113.116 296.995 114.276H305.864C305.783 113.15 305.325 112.083 304.563 111.247C304.177 110.856 303.712 110.55 303.198 110.351C302.684 110.153 302.134 110.065 301.583 110.094C300.458 110.082 299.372 110.501 298.548 111.263L298.525 111.247Z" fill="#2D3748"/>
</g>
<defs>
<linearGradient id="paint0_linear_404_984" x1="38.0238" y1="125.865" x2="86.0286" y2="129.476" gradientUnits="userSpaceOnUse">
<stop stop-color="#009CDC" stop-opacity="0.3"/>
<stop offset="1" stop-color="#009CDC"/>
</linearGradient>
<linearGradient id="paint1_linear_404_984" x1="83.8082" y1="133.727" x2="120.332" y2="100.093" gradientUnits="userSpaceOnUse">
<stop stop-color="#59C6D8" stop-opacity="0.3"/>
<stop offset="1" stop-color="#59C6D8"/>
</linearGradient>
<linearGradient id="paint2_linear_404_984" x1="120.905" y1="108.179" x2="109.358" y2="48.8165" gradientUnits="userSpaceOnUse">
<stop stop-color="#009CDC"/>
<stop offset="1" stop-color="#00438C"/>
</linearGradient>
<linearGradient id="paint3_linear_404_984" x1="35.3042" y1="118.434" x2="66.3474" y2="118.434" gradientUnits="userSpaceOnUse">
<stop stop-color="#009CDC"/>
<stop offset="1" stop-color="#00438C"/>
</linearGradient>
<linearGradient id="paint4_linear_404_984" x1="37.8189" y1="85.1108" x2="24.9782" y2="130.769" gradientUnits="userSpaceOnUse">
<stop stop-color="#009CDC"/>
<stop offset="1" stop-color="#009CDC" stop-opacity="0.3"/>
</linearGradient>
<linearGradient id="paint5_linear_404_984" x1="10.9694" y1="74.6672" x2="53.5239" y2="57.8904" gradientUnits="userSpaceOnUse">
<stop stop-color="#59C6D8" stop-opacity="0.3"/>
<stop offset="1" stop-color="#59C6D8"/>
</linearGradient>
<linearGradient id="paint6_linear_404_984" x1="74.6481" y1="44.5918" x2="119.15" y2="67.1204" gradientUnits="userSpaceOnUse">
<stop stop-color="#009CDC"/>
<stop offset="1" stop-color="#009CDC" stop-opacity="0.3"/>
</linearGradient>
<clipPath id="clip0_404_984">
<rect width="381" height="103" fill="white" transform="translate(24 36)"/>
</clipPath>
</defs>
</svg>
