<svg width="422" height="176" viewBox="0 0 422 176" fill="none" xmlns="http://www.w3.org/2000/svg">
<g clip-path="url(#clip0_1965_3561)">
<path d="M227.044 140.698H184.649C183.821 140.704 183.003 140.522 182.256 140.166C181.51 139.81 180.854 139.288 180.34 138.641L153.42 105.046C152.892 104.385 152.523 103.613 152.342 102.787C152.161 101.962 152.173 101.106 152.378 100.286L162.618 59.1577C162.815 58.3858 163.176 57.6649 163.675 57.0433C164.174 56.4217 164.801 55.9136 165.513 55.5532L203.46 36.5835C204.224 36.2067 205.064 36.0106 205.916 36.0106C206.768 36.0106 207.608 36.2067 208.372 36.5835L246.805 55.5763C247.534 55.9286 248.175 56.4394 248.68 57.0712C249.185 57.703 249.542 58.4396 249.724 59.227L259.501 100.355C259.68 101.156 259.677 101.987 259.493 102.786C259.308 103.586 258.947 104.334 258.435 104.976L231.33 138.664C230.814 139.301 230.16 139.815 229.419 140.167C228.677 140.519 227.866 140.7 227.044 140.698V140.698ZM184.649 135.037H226.951L253.941 101.557L244.211 60.5903L205.939 41.6898L168.131 60.5903L157.915 101.58L184.649 135.037Z" fill="#238FCF"/>
<path d="M254.659 47.9976L259.477 44.0466L208.766 19V25.331L254.659 47.9976Z" fill="#1BBFD3"/>
<path d="M143.414 106.848L137.229 108.211L172.604 152.481L175.384 146.867L143.414 106.848Z" fill="#79BF43"/>
<path d="M203.067 25.354V19.0231L153.027 44.0465L157.707 48.0669L203.067 25.354Z" fill="#1BBFD3"/>
<path d="M154.325 52.6419L149.506 48.506L136 102.666L142.209 101.302L154.325 52.6419Z" fill="#1D4489"/>
<path d="M269.695 101.326L275.88 102.689L263.023 48.506L258.111 52.5264L269.695 101.326Z" fill="#1D4489"/>
<path d="M268.421 106.848L236.104 146.936L238.86 152.551L274.607 108.211L268.421 106.848Z" fill="#79BF43"/>
<path d="M180.503 149.316L177.723 155H233.716L230.936 149.316H180.503Z" fill="#1BBFD3"/>
</g>
<defs>
<clipPath id="clip0_1965_3561">
<rect width="139" height="136" fill="white" transform="translate(136 19)"/>
</clipPath>
</defs>
</svg>
