<svg width="19" height="18" viewBox="0 0 19 18" fill="none" xmlns="http://www.w3.org/2000/svg">
<g clip-path="url(#clip0)">
<path d="M1.28848 6.0098H4.9142V17.6694H1.28848V6.0098ZM3.10318 0.216736C4.26365 0.216736 5.2044 1.15749 5.2044 2.31796C5.2044 3.47843 4.26365 4.41918 3.10318 4.41918C1.9427 4.41918 1.00195 3.47843 1.00195 2.31796C1.00195 1.15749 1.9427 0.216736 3.10318 0.216736Z" fill="white"/>
<path d="M7.18848 6.0098H10.6599V7.60409H10.726C11.4345 6.39341 12.7516 5.67065 14.1534 5.72327C17.8268 5.72327 18.4991 8.13674 18.4991 11.2739V17.6694H14.877V12.0012C14.877 10.6494 14.855 8.90817 12.9962 8.90817C11.1375 8.90817 10.8215 10.3776 10.8215 11.902V17.6694H7.20317L7.18848 6.0098Z" fill="white"/>
</g>
<defs>
<clipPath id="clip0">
<rect x="0.807617" width="18" height="18" fill="white"/>
</clipPath>
</defs>
</svg>
