<svg width="36" height="36" viewBox="0 0 36 36" fill="none" xmlns="http://www.w3.org/2000/svg">
<path fill-rule="evenodd" clip-rule="evenodd" d="M29.9999 8H10.8599C10.3442 7.99269 9.85395 7.77496 9.50272 7.3973C9.1515 7.01964 8.96986 6.51486 8.99993 6C8.99735 4.94787 9.81038 4.07365 10.8599 4H29.9999C30.5522 4 30.9999 3.55228 30.9999 3C30.9999 2.44772 30.5522 2 29.9999 2H10.8599C8.70565 2.07545 6.99861 3.8444 6.99993 6C6.99026 6.16319 6.99026 6.32681 6.99993 6.49C6.9903 6.56971 6.9903 6.65029 6.99993 6.73V30C6.99861 32.1556 8.70565 33.9246 10.8599 34H29.9999C30.5522 34 30.9999 33.5523 30.9999 33V9.25V9.16V9.07C31.0011 8.50535 30.5634 8.03694 29.9999 8ZM28.9999 32H10.8599C9.81038 31.9264 8.99735 31.0521 8.99993 30V9.55C9.56852 9.86367 10.2108 10.0191 10.8599 10H28.9999V32ZM28.9999 5.2H10.9999V6.75H28.9999V5.2Z" fill="#61717D"/>
</svg>
