<svg width="19" height="18" viewBox="0 0 19 18" fill="none" xmlns="http://www.w3.org/2000/svg">
<g clip-path="url(#clip0)">
<path fill-rule="evenodd" clip-rule="evenodd" d="M14.3951 17.925H5.18767C2.79938 17.925 0.863281 15.9889 0.863281 13.6006V4.39324C0.863281 2.00486 2.79938 0.0688477 5.18767 0.0688477H14.3951C16.7834 0.0688477 18.7195 2.00486 18.7195 4.39324V13.6006C18.7195 15.9889 16.7834 17.925 14.3951 17.925Z" fill="white"/>
<path fill-rule="evenodd" clip-rule="evenodd" d="M15.3885 6.11239C15.2077 5.24004 14.3831 4.92851 13.7021 4.87249C13.0517 4.81884 10.9909 4.72296 9.79141 4.72296C8.5919 4.72296 6.53112 4.81884 5.88066 4.87249C5.19965 4.92851 4.37507 5.24004 4.1942 6.11239C4.01745 6.9655 3.98145 7.85681 3.98145 8.99695C3.98145 10.1371 4.01745 11.0284 4.1942 11.8815C4.37507 12.7538 5.19965 13.0653 5.88066 13.1214C6.53112 13.175 8.5919 13.2709 9.79141 13.2709C10.9909 13.2709 13.0517 13.175 13.7021 13.1214C14.3831 13.0653 15.2077 12.7538 15.3885 11.8815C15.5654 11.0284 15.6013 10.1371 15.6013 8.99695C15.6013 7.85681 15.5654 6.9655 15.3885 6.11239Z" fill="#314351"/>
<path fill-rule="evenodd" clip-rule="evenodd" d="M8.16016 10.823L11.4236 8.99694L8.16016 7.17078V10.823Z" fill="white"/>
</g>
<defs>
<clipPath id="clip0">
<rect x="0.807617" width="17.9122" height="18" fill="white"/>
</clipPath>
</defs>
</svg>
